<svg width="656" height="67" viewBox="0 0 656 67" fill="none" xmlns="http://www.w3.org/2000/svg">
<path d="M1.6875 48.5625C1.16667 48.3125 0.90625 47.7917 0.90625 47C0.90625 46.2083 1.54167 44.5208 2.8125 41.9375C4.08333 39.3333 5.08333 38.0312 5.8125 38.0312C6.22917 38.0312 6.875 38.3229 7.75 38.9062C8.625 39.4688 9.63542 40.1562 10.7812 40.9688C11.9479 41.7812 13.2083 42.5833 14.5625 43.375C17.8542 45.3333 21.0521 46.3125 24.1562 46.3125C25.6979 46.3125 26.8021 46 27.4688 45.375C28.1354 44.75 28.4688 44.125 28.4688 43.5C28.4688 42.8542 28.1146 42.1354 27.4062 41.3438C26.6979 40.5312 25.7708 39.6979 24.625 38.8438C23.5 37.9896 22.25 37.0938 20.875 36.1562C19.5 35.1979 18.125 34.1875 16.75 33.125C15.375 32.0625 14.125 31 13 29.9375C10.4375 27.5208 9.15625 25.1667 9.15625 22.875C9.15625 21.25 9.58333 19.7812 10.4375 18.4688C11.3125 17.1562 12.4167 16.0938 13.75 15.2812C15.1042 14.4688 16.6354 13.7917 18.3438 13.25C21.4062 12.25 24.5625 11.75 27.8125 11.75C28.7083 11.75 29.375 11.8854 29.8125 12.1562C30.25 12.4271 30.4688 12.7396 30.4688 13.0938C30.4688 13.4479 30.3125 13.9896 30 14.7188C29.6875 15.4271 29.5312 16.0625 29.5312 16.625C29.5312 17.1875 29.9062 17.9062 30.6562 18.7812C31.4271 19.6562 32.4167 20.5521 33.625 21.4688C34.8333 22.3854 36.1667 23.3646 37.625 24.4062C39.0833 25.4479 40.5417 26.5521 42 27.7188C43.4583 28.8854 44.7917 30.0729 46 31.2812C48.7292 34.0104 50.0938 36.6562 50.0938 39.2188C50.0938 41.7604 49.4271 43.8854 48.0938 45.5938C46.7812 47.3021 44.9479 48.625 42.5938 49.5625C40.2396 50.5 37.6562 51.1771 34.8438 51.5938C32.0312 52.0312 28.6042 52.25 24.5625 52.25C20.5208 52.25 16.0625 51.8333 11.1875 51C6.33333 50.1458 3.16667 49.3333 1.6875 48.5625ZM53.4375 17.9688C50.7083 14.7188 47.3229 12.3021 43.2812 10.7188C39.2604 9.11458 35.0625 8.3125 30.6875 8.3125C22.6667 8.3125 14.9375 9.82292 7.5 12.8438C6.5 13.2396 5.79167 13.4375 5.375 13.4375C4.54167 13.4375 4.125 13.0417 4.125 12.25C4.125 11.6042 4.67708 10.8333 5.78125 9.9375C6.90625 9.04167 8.51042 8.125 10.5938 7.1875C12.6979 6.22917 15.0729 5.34375 17.7188 4.53125C23.7604 2.67708 30.2396 1.75 37.1562 1.75C47.3854 1.75 55.1042 3.1875 60.3125 6.0625C60.6042 6.22917 60.7292 6.72917 60.6875 7.5625C60.6667 8.375 60.2917 9.63542 59.5625 11.3438C58.8333 13.0521 57.9479 14.6354 56.9062 16.0938C55.8854 17.5521 55.0104 18.2812 54.2812 18.2812C54.0938 18.0729 53.8125 17.9688 53.4375 17.9688ZM73 4.71875L87.3125 4.625C87.7917 4.625 88.1771 4.78125 88.4688 5.09375C88.7812 5.38542 88.9375 5.875 88.9375 6.5625C88.9375 7.25 88.5104 9.27083 87.6562 12.625C86.8021 15.9583 85.8438 19.2292 84.7812 22.4375C87.5104 21.2708 90.5312 20.2188 93.8438 19.2812C97.1562 18.3229 100.135 17.8438 102.781 17.8438C104.781 17.8438 106.604 18.3958 108.25 19.5C110.083 20.7292 111 22.5938 111 25.0938C111 27.5729 110.031 30.9167 108.094 35.125C106.156 39.3333 105.188 42.0208 105.188 43.1875C105.188 44.8958 106.01 45.75 107.656 45.75C110.906 45.75 114.583 44.6979 118.688 42.5938C119.312 42.2604 119.823 42.0938 120.219 42.0938C121.073 42.0938 121.5 42.4792 121.5 43.25C121.5 44 121.021 44.6771 120.062 45.2812C119.125 45.8646 117.938 46.5 116.5 47.1875C115.062 47.8542 113.26 48.5938 111.094 49.4062C106.031 51.3021 100.625 52.25 94.875 52.25C89.125 52.25 86.25 50.8333 86.25 48C86.25 46.1667 87.2917 42.8958 89.375 38.1875C91.4792 33.4583 92.5312 30.2708 92.5312 28.625C92.5312 26.6458 91.0833 25.6562 88.1875 25.6562C86.5833 25.6562 85 25.9062 83.4375 26.4062C80 36.4896 77.5312 44.3958 76.0312 50.125C75.9271 50.5208 75.6875 50.8125 75.3125 51C74.9583 51.1875 74.6458 51.2812 74.375 51.2812L58.2812 51.625C58.0521 51.625 57.7917 51.4792 57.5 51.1875C57.2292 50.9167 57.0938 50.5729 57.0938 50.1562C57.0938 49.7396 57.7604 47.6458 59.0938 43.875C60.4479 40.1042 61.9271 36.0104 63.5312 31.5938C65.1562 27.1771 66.6354 22.5833 67.9688 17.8125C69.3229 13.0417 70 9.48958 70 7.15625L69.9688 6.28125C69.9688 5.23958 70.9792 4.71875 73 4.71875ZM140.031 44.3125C143.948 44.3125 147.219 41.3125 149.844 35.3125C151.052 32.5625 151.656 30.3333 151.656 28.625C151.656 26.9167 151.365 25.7396 150.781 25.0938C150.219 24.4479 149.094 24.125 147.406 24.125C145.74 24.125 143.927 24.9062 141.969 26.4688C140.031 28.0104 138.469 29.9583 137.281 32.3125C136.094 34.6667 135.5 36.7917 135.5 38.6875C135.5 40.5625 135.917 41.9688 136.75 42.9062C137.583 43.8438 138.677 44.3125 140.031 44.3125ZM156.281 17.8438L170.594 18.5C171.135 18.5 171.542 18.6667 171.812 19C172.083 19.3125 172.219 19.6667 172.219 20.0625C172.219 21.5833 171.583 24.0104 170.312 27.3438C169.062 30.6562 167.802 33.9479 166.531 37.2188C165.281 40.4688 164.656 42.625 164.656 43.6875C164.656 44.7292 164.812 45.3958 165.125 45.6875C165.458 45.9792 166.083 46.125 167 46.125C167.917 46.125 169.583 45.6875 172 44.8125C174.438 43.9167 176.083 43.2396 176.938 42.7812C177.812 42.3229 178.479 42.0938 178.938 42.0938C179.75 42.0938 180.156 42.4583 180.156 43.1875C180.156 44.7292 177.031 46.75 170.781 49.25C168.677 50.1042 166.135 50.8125 163.156 51.375C160.198 51.9583 157.188 52.25 154.125 52.25C149.021 52.25 145.948 50.625 144.906 47.375C141.656 50.625 137.281 52.25 131.781 52.25C128.01 52.25 124.823 51.3438 122.219 49.5312C119.385 47.5521 117.969 44.4375 117.969 40.1875C117.969 35.7083 119.292 31.5833 121.938 27.8125C124.833 23.625 128.708 20.7396 133.562 19.1562C136.25 18.2812 139.135 17.8438 142.219 17.8438C146.948 17.8438 150.625 19.0104 153.25 21.3438C153.271 21.2188 153.281 21.0208 153.281 20.75L153.25 19.4062C153.25 18.3646 154.26 17.8438 156.281 17.8438ZM185.438 18.8438L199.625 18.5C200.167 18.5 200.573 18.6667 200.844 19C201.115 19.3125 201.25 19.6771 201.25 20.0938C201.25 20.4896 201.177 21.1875 201.031 22.1875C200.885 23.1667 200.812 23.8854 200.812 24.3438C204.646 20.0104 209.76 17.8438 216.156 17.8438C220.052 17.8438 223.115 18.8438 225.344 20.8438C227.594 22.8229 228.719 25.6354 228.719 29.2812C228.719 36.3646 225.938 42.1562 220.375 46.6562C226.833 46.1979 231.792 45 235.25 43.0625C236.396 42.4167 237.24 42.0938 237.781 42.0938C238.49 42.0938 238.844 42.4792 238.844 43.25C238.844 43.7917 238.458 44.3438 237.688 44.9062C234.146 47.3854 229.583 49.2188 224 50.4062C218.438 51.5938 212.448 52.1875 206.031 52.1875C205.24 52.2292 204.646 52.25 204.25 52.25C202.042 52.25 199.833 51.9167 197.625 51.25C195.417 50.5833 193.583 49.6458 192.125 48.4375C190.688 52.8333 189.969 57.9062 189.969 63.6562L190 64.5625C190 65.6042 188.99 66.125 186.969 66.125L172.438 66.5C171.938 66.5 171.542 66.3438 171.25 66.0312C170.958 65.7396 170.812 65.4062 170.812 65.0312C170.812 61.4688 172.76 54.5625 176.656 44.3125C180.552 34.0417 182.5 27.1667 182.5 23.6875L182.375 21.0938C182.375 20.3229 182.562 19.7604 182.938 19.4062C183.333 19.0312 184.167 18.8438 185.438 18.8438ZM206.938 25.7812C203.021 25.7812 199.75 28.7812 197.125 34.7812C195.917 37.5312 195.312 39.7604 195.312 41.4688C195.312 43.1771 195.594 44.3542 196.156 45C196.74 45.6458 197.865 45.9688 199.531 45.9688C201.219 45.9688 203.031 45.1979 204.969 43.6562C206.927 42.0938 208.5 40.1354 209.688 37.7812C210.875 35.4271 211.469 33.3125 211.469 31.4375C211.469 29.5417 211.052 28.125 210.219 27.1875C209.385 26.25 208.292 25.7812 206.938 25.7812ZM285.812 42.0938C286.542 42.0938 286.906 42.4375 286.906 43.125C286.906 43.7917 286.406 44.4167 285.406 45C284.427 45.5625 283.208 46.1771 281.75 46.8438C280.292 47.4896 278.281 48.2604 275.719 49.1562C269.823 51.2188 263.167 52.25 255.75 52.25C241.667 52.25 234.625 47.9167 234.625 39.25C234.625 35.0208 235.958 31.2708 238.625 28C241.312 24.7083 244.906 22.1979 249.406 20.4688C253.906 18.7188 258.812 17.8438 264.125 17.8438C269.438 17.8438 273.323 18.6667 275.781 20.3125C278.26 21.9583 279.5 24.2188 279.5 27.0938C279.5 30.0521 278.312 32.4688 275.938 34.3438C273.583 36.2188 270.448 37.6146 266.531 38.5312C262.594 39.4479 258.083 40.0938 253 40.4688C253.333 43.6979 255.646 45.7083 259.938 46.5C261.042 46.6875 262.208 46.7812 263.438 46.7812C268.312 46.7812 275.344 45.3125 284.531 42.375C285.094 42.1875 285.521 42.0938 285.812 42.0938ZM253.031 37.0312C256.656 36.0312 259.521 34.5 261.625 32.4375C263.729 30.375 264.781 27.8854 264.781 24.9688C264.781 24.1979 264.531 23.5833 264.031 23.125C263.531 22.6667 262.771 22.4375 261.75 22.4375C260.75 22.4375 259.698 22.875 258.594 23.75C257.51 24.625 256.594 25.7708 255.844 27.1875C254.26 30.125 253.323 33.4062 253.031 37.0312ZM284.562 48.5625C284.042 48.3125 283.781 47.7917 283.781 47C283.781 46.2083 284.417 44.5208 285.688 41.9375C286.958 39.3333 287.958 38.0312 288.688 38.0312C289.104 38.0312 289.75 38.3229 290.625 38.9062C291.5 39.4688 292.51 40.1562 293.656 40.9688C294.823 41.7812 296.083 42.5833 297.438 43.375C300.729 45.3333 303.927 46.3125 307.031 46.3125C308.573 46.3125 309.677 46 310.344 45.375C311.01 44.75 311.344 44.125 311.344 43.5C311.344 42.8542 310.99 42.1354 310.281 41.3438C309.573 40.5312 308.646 39.6979 307.5 38.8438C306.375 37.9896 305.125 37.0938 303.75 36.1562C302.375 35.1979 301 34.1875 299.625 33.125C298.25 32.0625 297 31 295.875 29.9375C293.312 27.5208 292.031 25.1667 292.031 22.875C292.031 21.25 292.458 19.7812 293.312 18.4688C294.188 17.1562 295.292 16.0938 296.625 15.2812C297.979 14.4688 299.51 13.7917 301.219 13.25C304.281 12.25 307.438 11.75 310.688 11.75C311.583 11.75 312.25 11.8854 312.688 12.1562C313.125 12.4271 313.344 12.7396 313.344 13.0938C313.344 13.4479 313.188 13.9896 312.875 14.7188C312.562 15.4271 312.406 16.0625 312.406 16.625C312.406 17.1875 312.781 17.9062 313.531 18.7812C314.302 19.6562 315.292 20.5521 316.5 21.4688C317.708 22.3854 319.042 23.3646 320.5 24.4062C321.958 25.4479 323.417 26.5521 324.875 27.7188C326.333 28.8854 327.667 30.0729 328.875 31.2812C331.604 34.0104 332.969 36.6562 332.969 39.2188C332.969 41.7604 332.302 43.8854 330.969 45.5938C329.656 47.3021 327.823 48.625 325.469 49.5625C323.115 50.5 320.531 51.1771 317.719 51.5938C314.906 52.0312 311.479 52.25 307.438 52.25C303.396 52.25 298.938 51.8333 294.062 51C289.208 50.1458 286.042 49.3333 284.562 48.5625ZM336.312 17.9688C333.583 14.7188 330.198 12.3021 326.156 10.7188C322.135 9.11458 317.938 8.3125 313.562 8.3125C305.542 8.3125 297.812 9.82292 290.375 12.8438C289.375 13.2396 288.667 13.4375 288.25 13.4375C287.417 13.4375 287 13.0417 287 12.25C287 11.6042 287.552 10.8333 288.656 9.9375C289.781 9.04167 291.385 8.125 293.469 7.1875C295.573 6.22917 297.948 5.34375 300.594 4.53125C306.635 2.67708 313.115 1.75 320.031 1.75C330.26 1.75 337.979 3.1875 343.188 6.0625C343.479 6.22917 343.604 6.72917 343.562 7.5625C343.542 8.375 343.167 9.63542 342.438 11.3438C341.708 13.0521 340.823 14.6354 339.781 16.0938C338.76 17.5521 337.885 18.2812 337.156 18.2812C336.969 18.0729 336.688 17.9688 336.312 17.9688ZM355.875 4.71875L370.188 4.625C370.667 4.625 371.052 4.78125 371.344 5.09375C371.656 5.38542 371.812 5.875 371.812 6.5625C371.812 7.25 371.385 9.27083 370.531 12.625C369.677 15.9583 368.719 19.2292 367.656 22.4375C370.385 21.2708 373.406 20.2188 376.719 19.2812C380.031 18.3229 383.01 17.8438 385.656 17.8438C387.656 17.8438 389.479 18.3958 391.125 19.5C392.958 20.7292 393.875 22.5938 393.875 25.0938C393.875 27.5729 392.906 30.9167 390.969 35.125C389.031 39.3333 388.062 42.0208 388.062 43.1875C388.062 44.8958 388.885 45.75 390.531 45.75C393.781 45.75 397.458 44.6979 401.562 42.5938C402.188 42.2604 402.698 42.0938 403.094 42.0938C403.948 42.0938 404.375 42.4792 404.375 43.25C404.375 44 403.896 44.6771 402.938 45.2812C402 45.8646 400.812 46.5 399.375 47.1875C397.938 47.8542 396.135 48.5938 393.969 49.4062C388.906 51.3021 383.5 52.25 377.75 52.25C372 52.25 369.125 50.8333 369.125 48C369.125 46.1667 370.167 42.8958 372.25 38.1875C374.354 33.4583 375.406 30.2708 375.406 28.625C375.406 26.6458 373.958 25.6562 371.062 25.6562C369.458 25.6562 367.875 25.9062 366.312 26.4062C362.875 36.4896 360.406 44.3958 358.906 50.125C358.802 50.5208 358.562 50.8125 358.188 51C357.833 51.1875 357.521 51.2812 357.25 51.2812L341.156 51.625C340.927 51.625 340.667 51.4792 340.375 51.1875C340.104 50.9167 339.969 50.5729 339.969 50.1562C339.969 49.7396 340.635 47.6458 341.969 43.875C343.323 40.1042 344.802 36.0104 346.406 31.5938C348.031 27.1771 349.51 22.5833 350.844 17.8125C352.198 13.0417 352.875 9.48958 352.875 7.15625L352.844 6.28125C352.844 5.23958 353.854 4.71875 355.875 4.71875ZM430.562 6.9375C430.562 9.16667 429.323 11.1146 426.844 12.7812C424.385 14.4271 421.781 15.25 419.031 15.25C416.302 15.25 414.177 14.6979 412.656 13.5938C411.135 12.4688 410.375 11.1042 410.375 9.5C410.375 7.89583 410.958 6.4375 412.125 5.125C413.292 3.8125 414.802 2.78125 416.656 2.03125C418.531 1.28125 420.562 0.90625 422.75 0.90625C424.938 0.90625 426.781 1.48958 428.281 2.65625C429.802 3.80208 430.562 5.22917 430.562 6.9375ZM421.781 45.7188C423.198 45.7188 425.115 45.3854 427.531 44.7188C429.969 44.0312 431.74 43.4271 432.844 42.9062C433.948 42.3646 434.719 42.0938 435.156 42.0938C436.031 42.0938 436.469 42.5312 436.469 43.4062C436.469 43.8021 436.146 44.25 435.5 44.75C433.375 46.3333 429.552 47.9792 424.031 49.6875C418.51 51.3958 413.583 52.25 409.25 52.25C406.562 52.25 404.312 51.8229 402.5 50.9688C400.688 50.1146 399.781 48.8125 399.781 47.0625C399.781 46 400.688 43.3958 402.5 39.25C405.917 31.3958 407.625 25.4792 407.625 21.5L407.594 20.3125C407.594 19.2708 408.604 18.75 410.625 18.75L426.062 18.4062C426.604 18.4062 427.01 18.5729 427.281 18.9062C427.552 19.2188 427.688 19.5729 427.688 19.9688C427.688 21.4062 427.031 23.7812 425.719 27.0938C424.406 30.3854 423.094 33.625 421.781 36.8125C420.469 40 419.812 42.2812 419.812 43.6562C419.812 45.0312 420.469 45.7188 421.781 45.7188ZM448.875 63.2188C448.854 63.6562 448.677 64.0312 448.344 64.3438C448.01 64.6771 447.698 64.8438 447.406 64.8438C447.115 64.8438 444.979 64.7604 441 64.5938C437.042 64.4271 434.042 64.3438 432 64.3438C431.708 64.3438 431.458 64.2292 431.25 64C431.042 63.7917 430.938 63.5625 430.938 63.3125C431.396 58.1042 432.417 52.0104 434 45.0312C432.833 44.3854 431.917 43.8125 431.25 43.3125C430.188 42.6042 429.656 41.8854 429.656 41.1562C429.656 40.4271 430.104 40.0625 431 40.0625C431.375 40.0625 431.833 40.1875 432.375 40.4375C432.938 40.6875 433.76 41.0312 434.844 41.4688C437.906 29.0729 441.312 19.7708 445.062 13.5625C447.188 10.0625 449.583 7.52083 452.25 5.9375C454.917 4.33333 458.052 3.53125 461.656 3.53125C465.26 3.53125 468.042 4.5 470 6.4375C471.958 8.375 472.938 11.2396 472.938 15.0312C472.938 21.4896 471.083 27.4583 467.375 32.9375C463.688 38.3958 458.802 42.5104 452.719 45.2812C453.365 45.3438 453.938 45.375 454.438 45.375C463.062 45.375 470.51 44.3438 476.781 42.2812C477.135 42.1562 477.51 42.0938 477.906 42.0938C478.76 42.0938 479.188 42.4583 479.188 43.1875C479.188 43.7292 478.865 44.2083 478.219 44.625C475.635 46.1667 471.938 47.4583 467.125 48.5C462.333 49.5208 456.844 50.1146 450.656 50.2812C449.74 55.3021 449.146 59.6146 448.875 63.2188ZM452.125 42.75C456.354 39.8958 459.844 35.7188 462.594 30.2188C465.344 24.7188 466.719 19.1354 466.719 13.4688C466.719 11.4062 466.521 9.97917 466.125 9.1875C465.729 8.375 465.208 7.96875 464.562 7.96875C463.938 7.96875 463.427 8.15625 463.031 8.53125C462.656 8.88542 462.198 9.625 461.656 10.75C461.135 11.875 460.573 13.2708 459.969 14.9375C459.385 16.6042 458.323 19.8125 456.781 24.5625C455.24 29.2917 453.688 35.3542 452.125 42.75ZM504.188 19.1875L512.406 18.125C513.948 18.125 514.719 18.7292 514.719 19.9375C514.719 21.1458 513.99 21.9062 512.531 22.2188C511.073 22.5104 507.781 22.9062 502.656 23.4062C501.948 25.2604 500.885 27.8333 499.469 31.125C496.573 37.875 495.125 41.9271 495.125 43.2812C495.125 44.7604 496.042 45.5 497.875 45.5C503.792 45.5 509.104 44.5104 513.812 42.5312C514.5 42.2396 515.042 42.0938 515.438 42.0938C516.208 42.0938 516.594 42.4375 516.594 43.125C516.594 43.8125 516.094 44.4896 515.094 45.1562C512.031 47.1771 507.417 48.8646 501.25 50.2188C495.083 51.5729 489.396 52.25 484.188 52.25C481.229 52.25 478.969 51.7917 477.406 50.875C475.844 49.9375 475.062 48.6562 475.062 47.0312C475.062 45.3854 476.146 42.3125 478.312 37.8125C480.75 32.7708 482.5 28.3438 483.562 24.5312C482.271 24.5938 481.375 24.625 480.875 24.625C479.646 24.625 479.031 24.125 479.031 23.125C479.031 22.3958 479.229 21.9062 479.625 21.6562C480.021 21.4062 480.427 21.2292 480.844 21.125C481.281 21.0208 481.646 20.9583 481.938 20.9375C482.25 20.8958 482.677 20.8542 483.219 20.8125C483.76 20.7708 484.156 20.7396 484.406 20.7188C484.677 19.1354 484.812 17.6458 484.812 16.25L484.781 15.0625C484.781 14.125 485.969 13.4896 488.344 13.1562C489.135 13.0521 491.625 12.5312 495.812 11.5938C500 10.6562 502.562 10.1875 503.5 10.1875C505 10.1875 505.75 10.7083 505.75 11.75C505.75 13.5417 505.229 16.0208 504.188 19.1875ZM563.562 42.0938C564.292 42.0938 564.656 42.4375 564.656 43.125C564.656 43.7917 564.156 44.4167 563.156 45C562.177 45.5625 560.958 46.1771 559.5 46.8438C558.042 47.4896 556.031 48.2604 553.469 49.1562C547.573 51.2188 540.917 52.25 533.5 52.25C519.417 52.25 512.375 47.9167 512.375 39.25C512.375 35.0208 513.708 31.2708 516.375 28C519.062 24.7083 522.656 22.1979 527.156 20.4688C531.656 18.7188 536.562 17.8438 541.875 17.8438C547.188 17.8438 551.073 18.6667 553.531 20.3125C556.01 21.9583 557.25 24.2188 557.25 27.0938C557.25 30.0521 556.062 32.4688 553.688 34.3438C551.333 36.2188 548.198 37.6146 544.281 38.5312C540.344 39.4479 535.833 40.0938 530.75 40.4688C531.083 43.6979 533.396 45.7083 537.688 46.5C538.792 46.6875 539.958 46.7812 541.188 46.7812C546.062 46.7812 553.094 45.3125 562.281 42.375C562.844 42.1875 563.271 42.0938 563.562 42.0938ZM530.781 37.0312C534.406 36.0312 537.271 34.5 539.375 32.4375C541.479 30.375 542.531 27.8854 542.531 24.9688C542.531 24.1979 542.281 23.5833 541.781 23.125C541.281 22.6667 540.521 22.4375 539.5 22.4375C538.5 22.4375 537.448 22.875 536.344 23.75C535.26 24.625 534.344 25.7708 533.594 27.1875C532.01 30.125 531.073 33.4062 530.781 37.0312ZM570.625 18.8438L585.438 18.5C585.979 18.5 586.385 18.6667 586.656 19C586.927 19.3125 587.062 19.6042 587.062 19.875C587.062 20.1458 586.99 20.5938 586.844 21.2188C586.698 21.8438 586.51 22.6042 586.281 23.5C586.052 24.375 585.906 24.9375 585.844 25.1875C587.469 23.25 589.5 21.5417 591.938 20.0625C594.375 18.5833 596.521 17.8438 598.375 17.8438C602.312 17.8438 604.281 18.6979 604.281 20.4062C604.281 22.0938 603.75 24.125 602.688 26.5C601.625 28.8542 600.625 30.4062 599.688 31.1562C599.229 31.4896 598.667 31.6562 598 31.6562C597.354 31.6562 596.75 31.4479 596.188 31.0312C593.667 29.1562 590.917 28.2188 587.938 28.2188C586.792 28.2188 585.792 28.3021 584.938 28.4688C584.125 31.2604 582.833 35.3646 581.062 40.7812C579.292 46.1771 578.312 49.1875 578.125 49.8125C577.812 50.7917 577.229 51.2812 576.375 51.2812C573.354 51.2812 570.115 51.4375 566.656 51.75C563.198 52.0833 561.208 52.25 560.688 52.25C560.188 52.25 559.792 52.1042 559.5 51.8125C559.229 51.5417 559.094 51.2188 559.094 50.8438C559.094 50.4479 559.531 49.0521 560.406 46.6562C561.302 44.2396 562.281 41.6458 563.344 38.875C564.427 36.1042 565.406 33.0625 566.281 29.75C567.177 26.4375 567.625 23.7188 567.625 21.5938L567.594 20.4062C567.594 19.3646 568.604 18.8438 570.625 18.8438ZM624 52.2188C623.479 52.2396 622.708 52.25 621.688 52.25C616.896 52.25 612.375 51.8021 608.125 50.9062C603.896 50.0104 601.396 48.9688 600.625 47.7812C600.375 47.4062 600.25 46.9375 600.25 46.375C600.25 45.8125 600.917 44.9167 602.25 43.6875C603.583 42.4375 604.5 41.8125 605 41.8125C605.5 41.8125 606.01 42 606.531 42.375C607.073 42.7292 607.667 43.1667 608.312 43.6875C608.958 44.2083 609.677 44.7292 610.469 45.25C612.365 46.5 614.646 47.125 617.312 47.125C618.375 47.125 619.229 46.8542 619.875 46.3125C620.542 45.7708 620.875 45.0938 620.875 44.2812C620.875 43.4479 620.594 42.7292 620.031 42.125C619.49 41.5208 618.771 41 617.875 40.5625C617 40.1042 616.031 39.6562 614.969 39.2188C613.906 38.7604 612.833 38.2708 611.75 37.75C610.688 37.2083 609.708 36.625 608.812 36C606.833 34.6042 605.844 32.875 605.844 30.8125C605.844 28.7292 606.469 26.9271 607.719 25.4062C608.99 23.8854 610.583 22.6667 612.5 21.75C614.417 20.8333 616.583 20.0625 619 19.4375C623.25 18.375 627.26 17.8438 631.031 17.8438C634.823 17.8438 638.344 18.0417 641.594 18.4375C644.865 18.8125 647.115 19.375 648.344 20.125C648.677 20.3125 648.844 20.8125 648.844 21.625C648.844 22.4167 648.562 23.5625 648 25.0625C647.438 26.5417 646.719 27.9167 645.844 29.1875C644.99 30.4375 644.219 31.0625 643.531 31.0625C643.26 31.0625 643.031 30.9479 642.844 30.7188C640.865 28.3438 638.938 26.5208 637.062 25.25C635.208 23.9583 633.188 23.3125 631 23.3125C629.333 23.3125 628.135 23.6562 627.406 24.3438C626.698 25.0104 626.344 25.7083 626.344 26.4375C626.344 27.1667 626.74 27.8646 627.531 28.5312C628.344 29.1979 629.344 29.8021 630.531 30.3438C631.74 30.8854 633.042 31.5208 634.438 32.25C635.854 32.9583 637.156 33.6875 638.344 34.4375C639.552 35.1667 640.552 36.0938 641.344 37.2188C642.156 38.3229 642.562 39.7188 642.562 41.4062C642.562 43.0938 641.948 44.7396 640.719 46.3438C645.885 45.3021 649.927 44.0208 652.844 42.5C653.344 42.2292 653.771 42.0938 654.125 42.0938C654.917 42.0938 655.312 42.4896 655.312 43.2812C655.312 43.9479 654.906 44.5625 654.094 45.125C653.281 45.6667 651.938 46.3333 650.062 47.125C648.188 47.8958 645.958 48.6771 643.375 49.4688C637.354 51.3021 630.896 52.2188 624 52.2188Z" fill="white"/>
</svg>
