<svg width="61" height="52" viewBox="0 0 61 52" fill="none" xmlns="http://www.w3.org/2000/svg">
<path d="M1.6875 47.5625C1.16667 47.3125 0.90625 46.7917 0.90625 46C0.90625 45.2083 1.54167 43.5208 2.8125 40.9375C4.08333 38.3333 5.08333 37.0312 5.8125 37.0312C6.22917 37.0312 6.875 37.3229 7.75 37.9062C8.625 38.4688 9.63542 39.1562 10.7812 39.9688C11.9479 40.7812 13.2083 41.5833 14.5625 42.375C17.8542 44.3333 21.0521 45.3125 24.1562 45.3125C25.6979 45.3125 26.8021 45 27.4688 44.375C28.1354 43.75 28.4688 43.125 28.4688 42.5C28.4688 41.8542 28.1146 41.1354 27.4062 40.3438C26.6979 39.5312 25.7708 38.6979 24.625 37.8438C23.5 36.9896 22.25 36.0938 20.875 35.1562C19.5 34.1979 18.125 33.1875 16.75 32.125C15.375 31.0625 14.125 30 13 28.9375C10.4375 26.5208 9.15625 24.1667 9.15625 21.875C9.15625 20.25 9.58333 18.7812 10.4375 17.4688C11.3125 16.1562 12.4167 15.0938 13.75 14.2812C15.1042 13.4688 16.6354 12.7917 18.3438 12.25C21.4062 11.25 24.5625 10.75 27.8125 10.75C28.7083 10.75 29.375 10.8854 29.8125 11.1562C30.25 11.4271 30.4688 11.7396 30.4688 12.0938C30.4688 12.4479 30.3125 12.9896 30 13.7188C29.6875 14.4271 29.5312 15.0625 29.5312 15.625C29.5312 16.1875 29.9062 16.9062 30.6562 17.7812C31.4271 18.6562 32.4167 19.5521 33.625 20.4688C34.8333 21.3854 36.1667 22.3646 37.625 23.4062C39.0833 24.4479 40.5417 25.5521 42 26.7188C43.4583 27.8854 44.7917 29.0729 46 30.2812C48.7292 33.0104 50.0938 35.6562 50.0938 38.2188C50.0938 40.7604 49.4271 42.8854 48.0938 44.5938C46.7812 46.3021 44.9479 47.625 42.5938 48.5625C40.2396 49.5 37.6562 50.1771 34.8438 50.5938C32.0312 51.0312 28.6042 51.25 24.5625 51.25C20.5208 51.25 16.0625 50.8333 11.1875 50C6.33333 49.1458 3.16667 48.3333 1.6875 47.5625ZM53.4375 16.9688C50.7083 13.7188 47.3229 11.3021 43.2812 9.71875C39.2604 8.11458 35.0625 7.3125 30.6875 7.3125C22.6667 7.3125 14.9375 8.82292 7.5 11.8438C6.5 12.2396 5.79167 12.4375 5.375 12.4375C4.54167 12.4375 4.125 12.0417 4.125 11.25C4.125 10.6042 4.67708 9.83333 5.78125 8.9375C6.90625 8.04167 8.51042 7.125 10.5938 6.1875C12.6979 5.22917 15.0729 4.34375 17.7188 3.53125C23.7604 1.67708 30.2396 0.75 37.1562 0.75C47.3854 0.75 55.1042 2.1875 60.3125 5.0625C60.6042 5.22917 60.7292 5.72917 60.6875 6.5625C60.6667 7.375 60.2917 8.63542 59.5625 10.3438C58.8333 12.0521 57.9479 13.6354 56.9062 15.0938C55.8854 16.5521 55.0104 17.2812 54.2812 17.2812C54.0938 17.0729 53.8125 16.9688 53.4375 16.9688Z" fill="#35B9D6"/>
</svg>
